<svg width="28" height="28" viewBox="0 0 28 28" fill="none" xmlns="http://www.w3.org/2000/svg">
<g clip-path="url(#clip0_2899_387)">
<path d="M13.9999 17.7333C16.0618 17.7333 17.7333 16.0618 17.7333 13.9999C17.7333 11.9381 16.0618 10.2666 13.9999 10.2666C11.9381 10.2666 10.2666 11.9381 10.2666 13.9999C10.2666 16.0618 11.9381 17.7333 13.9999 17.7333Z" fill="white"/>
<path d="M10.4999 2.33337L8.36492 4.6667H4.66659C3.38325 4.6667 2.33325 5.7167 2.33325 7.00004V21C2.33325 22.2834 3.38325 23.3333 4.66659 23.3333H23.3333C24.6166 23.3333 25.6666 22.2834 25.6666 21V7.00004C25.6666 5.7167 24.6166 4.6667 23.3333 4.6667H19.6349L17.4999 2.33337H10.4999ZM13.9999 19.8334C10.7799 19.8334 8.16659 17.22 8.16659 14C8.16659 10.78 10.7799 8.1667 13.9999 8.1667C17.2199 8.1667 19.8333 10.78 19.8333 14C19.8333 17.22 17.2199 19.8334 13.9999 19.8334Z" fill="white"/>
</g>
<defs>
<clipPath id="clip0_2899_387">
<rect width="28" height="28" fill="white"/>
</clipPath>
</defs>
</svg>
