<svg width="66" height="99" viewBox="0 0 66 99" fill="none" xmlns="http://www.w3.org/2000/svg">
<path fill-rule="evenodd" clip-rule="evenodd" d="M61.4082 61.4625C61.1316 60.6917 61.5353 59.9225 61.7595 59.1771C62.5553 56.5906 63.4241 54.004 64.6536 51.5922C65.1195 50.7854 64.3532 49.7955 63.4653 50.023C61.9457 50.2391 60.3782 50.067 58.8561 49.9714C58.2991 48.5092 56.8132 47.9025 55.6436 47.0606C54.3166 46.2196 53.0253 45.2534 51.6453 44.5164C51.5682 43.8195 50.7366 43.647 50.2274 44.1451C48.8303 43.2626 47.1545 43.4267 45.6562 42.8487C44.5182 40.9806 44.4328 39.0165 44.1311 37.2148C43.9999 36.4291 44.1395 35.6714 43.6107 34.9712C41.8349 32.4354 34.8178 31.3356 32.2303 32.8384C30.8378 31.9568 30.8041 33.5538 30.5828 34.5395C30.337 35.0325 30.2041 35.5911 30.2453 36.1792C28.7491 39.3514 25.3266 40.7857 22.2617 41.9472C21.8772 41.5717 21.3277 41.6191 20.9618 41.9299C18.3051 42.5163 15.7267 43.5468 13.5008 45.1561C10.9719 45.9071 9.19095 47.9951 7.90307 50.234C7.7612 50.4699 7.72774 50.7105 7.7692 50.9317C3.80891 56.8252 1.91874 63.8807 1.65328 71.0064C-0.893466 72.5582 2.86374 86.4976 3.73841 89.3915C3.73928 89.3911 3.74016 89.3906 3.74103 89.3902C4.30845 90.4101 4.95274 93.3205 6.37282 93.0951C7.34695 94.2136 8.89932 93.9937 10.2212 94.0795C10.0059 94.918 10.1117 95.8774 10.3679 96.7058C10.671 97.6918 12.1584 97.7257 12.3693 96.6504C25.5332 99.2466 39.0403 97.1751 52.3524 97.5646C56.2011 97.5925 60.0499 97.7134 63.8895 97.9916C64.4303 98.031 64.9786 97.4698 64.9416 96.9235C64.1161 88.0071 63.3407 76.2775 62.4178 67.4487C62.1986 65.4351 62.0257 63.3995 61.4082 61.4625Z" fill="white"/>
<path fill-rule="evenodd" clip-rule="evenodd" d="M30.8004 33.3889C30.8379 33.284 30.9921 33.298 30.995 33.4155C31.0554 35.9225 30.4408 38.986 28.4646 40.6795C27.4504 41.5489 26.1092 41.9467 24.8775 42.4038L24.7388 42.4558L22.5628 43.2787C21.9857 43.4969 21.3631 43.8326 20.8534 43.5244C21.2659 44.5629 21.6122 45.6297 22.1145 46.6305C22.7399 47.8766 23.496 49.0166 24.4213 50.053C28.0875 54.1605 33.8892 55.4133 39.0958 54.2099C41.7771 53.5901 44.3858 52.4154 46.215 50.2733C47.605 48.6454 48.4038 46.4597 48.5921 44.3041C48.5371 44.313 48.4792 44.313 48.42 44.2994C47.7612 44.1535 47.0963 43.795 46.5167 43.4436L46.4608 43.4098C45.9029 43.069 45.3217 42.6783 44.9212 42.1484C44.5238 41.6224 44.1067 39.907 44.1067 39.907C43.9929 39.2621 43.8863 37.978 43.9046 37.326C43.9063 37.2646 44.175 37.2283 44.2038 37.2921C44.4521 37.8456 44.5325 39.0613 44.7242 39.6372L44.7629 39.7518C44.9675 40.3535 45.1429 41.0854 45.5675 41.5717C46.3642 42.4846 47.5662 42.8711 48.6392 43.329C48.7163 42.2973 50.3396 42.321 50.3188 43.3971C50.3179 43.4554 50.315 43.5138 50.3133 43.5717C50.4413 43.6432 50.5642 43.7248 50.6792 43.8039L50.7917 43.8812C51.2167 44.1747 51.645 44.4538 52.0975 44.7024C52.9738 45.1848 53.9013 45.5671 54.7988 46.0047C55.7071 46.4474 56.5563 46.9747 57.3496 47.6065C57.7221 47.9029 58.0792 48.2187 58.4179 48.554L58.5096 48.6462C58.8321 48.9722 59.2517 49.3367 59.4354 49.765C59.4758 49.8593 59.6788 50.0792 59.7888 50.0864C61.4946 50.2001 63.1967 50.3604 64.8917 50.6006C65.3304 50.6627 65.5038 50.8923 65.3417 51.264C64.7842 52.5397 62.6021 57.6358 62.0217 59.0033C62.0896 60.0079 61.9979 61.1906 62.0592 62.1957C62.1483 63.6621 62.2654 65.1281 62.4058 66.5907C62.9075 71.8216 63.6679 77.0276 64.3554 82.2362C64.6996 84.8425 65.0129 87.4532 65.3225 90.0642C65.4792 91.3839 65.6117 92.7044 65.7138 94.0296C65.7563 94.5818 65.795 95.1345 65.8288 95.6871L65.8583 96.1776C65.8988 96.7945 65.9917 97.3836 65.6154 97.9134C65.445 98.1535 65.0558 98.2889 64.8313 98.0161C64.5496 97.6728 64.445 97.4165 64.4179 96.9658C64.3971 96.6207 64.3925 96.2744 64.3767 95.929C64.3433 95.1806 64.3013 94.4321 64.2521 93.6845C64.1538 92.1898 64.0417 90.6955 63.9113 89.2033C63.4558 83.9702 62.5896 78.7769 62.0133 73.5574C61.7229 70.9256 61.5167 68.2892 61.4071 65.6431C61.3525 64.3217 61.3329 63.0003 61.3454 61.6781C61.3504 61.1838 61.3733 60.6921 61.4071 60.2016C60.5433 62.1927 59.6358 64.1648 58.6871 66.1108L58.4621 66.5712C57.8604 67.8013 57.2429 69.0355 56.5204 70.195L56.3963 70.3929C56.1033 70.8639 55.7033 71.6064 55.1692 71.7548C54.7975 71.8584 54.3429 71.7857 53.9617 71.7781C53.5829 71.7709 53.2042 71.7692 52.8262 71.7536C52.4017 71.7362 51.9971 71.68 51.5871 71.5675C51.5192 71.5489 51.4546 71.5286 51.3958 71.5028C50.9829 72.1891 50.2813 72.7117 49.5638 73.0162C48.9888 73.2601 48.3867 73.4272 47.7833 73.5819L47.57 73.6365C46.9233 73.8001 46.1833 73.8775 45.8188 74.5117L45.7338 74.6589C45.4625 75.1265 45.2025 75.5375 44.7533 75.8729C44.2704 76.234 43.6979 76.461 43.1275 76.6378C42.5438 76.8187 41.9463 76.957 41.3533 77.1054L41.1917 77.1464C40.8004 77.2458 40.4054 77.3371 40.0167 77.4454C39.8504 77.4915 39.6817 77.5388 39.5188 77.5955C39.3279 77.6623 39.1896 77.7659 39.0392 77.8788C38.9038 78.3587 38.3258 78.6188 37.8508 78.5854C37.6012 78.568 37.3775 78.4822 37.1738 78.3562C36.8183 78.6632 36.4267 78.9384 36.0642 79.223C35.5567 79.6218 35.0471 80.0175 34.535 80.4095C33.4788 81.218 32.4142 82.0154 31.3388 82.7977C29.43 84.1855 27.4796 85.5098 25.4963 86.7851C24.6692 87.3166 23.8366 87.8477 22.9959 88.3656L23.0856 88.3995L23.2636 88.468C23.6842 88.6274 24.153 88.8849 24.2345 89.383C24.2991 89.7784 24.0817 90.0507 23.6974 90.0989C23.2406 90.1564 22.8851 89.8287 22.6007 89.5158C22.4752 89.3779 22.3347 89.2498 22.2145 89.1077C22.1654 89.0498 22.1278 88.983 22.0945 88.9128C21.2648 89.4092 20.4263 89.8887 19.5744 90.3374L19.3612 90.449C17.2488 91.5454 15.1927 92.7471 13.0623 93.8122C12.5066 94.0905 11.8291 94.3911 11.1228 94.5962C11.3102 95.3336 11.3073 96.1434 11.3121 96.8918C11.3166 97.6212 10.1747 97.6178 10.1989 96.8918L10.2105 96.5413C10.2313 95.9518 10.2652 95.3395 10.403 94.7662C8.32217 95.1163 6.24342 94.3552 5.85638 94.1264C5.42917 93.8744 5.04138 93.4706 4.71867 93.0964C4.02808 92.2951 3.54888 91.3344 3.12371 90.3682C2.21296 88.2988 1.56771 86.0865 1.09596 83.8747C-0.643207 75.7181 0.104875 66.9886 2.92925 59.1703C3.63488 57.2167 4.46796 55.3064 5.42263 53.4653L5.54117 53.2374C6.49383 51.4167 7.55262 49.6031 8.89754 48.0534C10.2984 46.4394 12.0265 45.1844 13.908 44.2102C14.8263 43.7345 15.771 43.3227 16.7367 42.9573C16.8918 42.8986 17.048 42.8461 17.2045 42.7958C18.2108 42.1446 19.4322 41.5214 20.6539 41.5459C20.7369 41.5476 20.8042 41.5797 20.8543 41.6275C20.9132 41.6381 20.9721 41.6508 21.0311 41.6681C21.1613 41.7066 21.2988 41.8516 21.2801 42.0004L21.2738 42.0499C21.2703 42.074 21.266 42.0973 21.2585 42.1201C21.3022 42.1269 21.3451 42.1374 21.3871 42.1518C22.556 41.8169 23.7061 41.304 24.8467 40.8909L25.1067 40.7975C26.0621 40.4579 27.0421 40.1247 27.8258 39.452C28.6054 38.7826 29.1917 37.9158 29.6154 36.9788C30.1375 35.8245 30.3717 34.5741 30.8004 33.3889ZM54.2033 94.2765C54.435 94.1019 54.7088 94.3044 54.795 94.5209C55.0796 95.2309 54.9392 96.3345 54.5383 96.962C54.1229 97.6127 53.1288 97.3556 53.1046 96.5679C53.0796 95.7463 53.55 94.7704 54.2033 94.2765ZM56.5942 74.6703C56.615 74.5781 56.7563 74.579 56.7771 74.6703C56.97 75.5037 56.9654 76.401 57.0221 77.2551L57.0288 77.3498C57.0963 78.2919 57.1533 79.2365 57.1942 80.1799C57.2742 82.0366 57.3696 83.8933 57.4762 85.7487C57.5296 86.6684 57.5863 87.5885 57.6471 88.5077C57.8371 88.4003 58.0325 88.306 58.2354 88.2227C58.5392 88.098 58.835 88.0836 59.1617 88.087C59.5592 88.0912 59.8588 88.4464 59.8058 88.8418C59.7488 89.2726 59.375 89.457 58.9871 89.3957C58.5575 89.3272 58.1263 89.2215 57.6925 89.1779C57.7408 89.8887 57.7908 90.5995 57.8438 91.3099C57.9138 92.2507 58.0054 93.1898 58.0696 94.1311C58.0758 94.2207 58.0825 94.3103 58.0892 94.4008C58.3479 94.2643 58.6225 94.1941 58.9338 94.1082L59.0146 94.085C59.4667 93.9535 59.95 93.7712 60.3683 94.0799C60.6496 94.2871 60.7058 94.6283 60.4729 94.9019C60.1196 95.3171 59.5971 95.2368 59.1092 95.2156L58.8467 95.2059C58.5996 95.1958 58.3713 95.1797 58.1425 95.1163C58.1846 95.7294 58.2067 96.3446 58.1325 96.9489C58.0925 97.2753 57.6692 97.3607 57.5571 97.0279C57.2646 96.1573 57.2042 95.2186 57.0971 94.307C56.9971 93.4558 56.9363 92.5983 56.8704 91.7429L56.8508 91.4862C56.7033 89.605 56.5854 87.7225 56.4996 85.8371C56.4133 83.9516 56.3617 82.067 56.3408 80.1799C56.3317 79.3232 56.3454 78.4636 56.3783 77.6065L56.3892 77.3498C56.4271 76.4686 56.4004 75.5337 56.5942 74.6703ZM17.9124 94.4156C17.9236 94.2951 18.0186 94.1454 18.1599 94.164C18.2901 94.1814 18.4243 94.1729 18.553 94.1949C18.723 94.2237 18.8598 94.3256 19.0179 94.3894C19.2749 94.4939 19.555 94.548 19.8186 94.633C20.3133 94.7932 20.5828 95.3218 20.378 95.8157C20.1625 96.3345 19.6213 96.4525 19.1535 96.2347C18.7849 96.063 18.5101 95.7886 18.2623 95.471L18.192 95.3806C18.0852 95.244 17.964 95.0922 17.9191 94.9269C17.8755 94.7658 17.897 94.5793 17.9124 94.4156ZM41.9438 91.9759C42.56 91.8875 43.0863 92.1014 43.6562 92.3031L43.7025 92.3192C44.2829 92.5226 45.1292 92.6634 45.4267 93.2664C45.6063 93.63 45.4667 94.1125 45.0446 94.2203C44.3758 94.3903 43.7762 93.8943 43.2233 93.5602L43.1946 93.5429C42.6608 93.2253 42.11 92.9585 41.7692 92.4114C41.6783 92.2655 41.7571 92.0025 41.9438 91.9759ZM20.437 42.2347C20.1901 42.2905 19.9433 42.3404 19.6967 42.3878C18.7588 42.8986 17.8484 43.4279 16.88 43.8825C15.8525 44.365 14.8289 44.8635 13.8529 45.447C11.8812 46.6263 10.2557 48.1595 8.91258 50.0386C6.5925 53.2852 4.86671 57.0286 3.63158 60.8274C3.31425 61.8033 3.03025 62.7902 2.77904 63.7851C3.22321 63.3682 3.74908 63.112 4.33879 62.8921C4.58871 62.7991 4.89979 62.9568 5.0265 63.1762C5.08342 63.2748 5.11558 63.3724 5.10967 63.4883C5.09654 63.7437 4.93283 64.0338 4.66258 64.0845C4.03254 64.2025 3.41996 64.4317 2.8125 64.6338C2.72042 64.6646 2.64125 64.6528 2.57808 64.6169C1.975 67.2101 1.59771 69.8567 1.46408 72.5193C1.35104 74.7735 1.42075 77.0454 1.66671 79.2966C1.85571 79.2103 2.04058 79.1296 2.24779 79.0805C2.51654 79.0171 2.78087 78.9397 3.04304 78.8526C3.79954 78.6006 4.14463 79.8687 3.37138 80.0619C3.08363 80.1338 2.79408 80.1934 2.50088 80.2374C2.24533 80.2755 2.01925 80.2585 1.77833 80.2188C1.96238 81.6231 2.21379 83.0172 2.53404 84.3918L2.60471 84.6924C3.02071 86.4477 3.50554 88.2198 4.20667 89.8786C4.55058 90.6921 5.00596 91.4651 5.56821 92.1437C5.84446 92.4773 6.15104 92.7632 6.48537 93.0342C6.76371 93.2596 7.70988 93.7488 8.83042 93.7488C9.951 93.7488 10.2544 93.6414 10.8197 93.444C11.9378 93.0532 12.9993 92.4296 14.0478 91.874L14.1563 91.8169C14.6199 91.5733 15.0817 91.3264 15.5424 91.0769C15.4842 90.5999 15.5861 90.1995 15.8308 89.7593C16.0953 89.2828 16.7507 89.52 16.7995 90.0075L16.801 90.0261C16.8084 90.1357 16.8266 90.2477 16.8491 90.3593C19.9293 88.6464 22.9443 86.8134 25.9113 84.9034C27.8225 83.6734 29.7133 82.4061 31.5767 81.1021C32.5079 80.4501 33.4313 79.7867 34.3454 79.1097C34.8242 78.7554 35.3008 78.3981 35.7754 78.0374C35.9729 77.8873 36.1671 77.73 36.365 77.579C36.3167 77.5177 36.27 77.4568 36.2246 77.3963C35.485 76.4132 35.005 75.2416 34.7658 74.0327C34.6217 73.3033 34.5517 72.546 34.5304 71.8022L34.5213 71.4787C34.5067 70.9341 34.5029 70.3637 34.6017 69.836C34.4671 69.9112 34.3296 69.9848 34.1925 70.0635C33.7008 70.3463 33.2083 70.6284 32.7154 70.9096C31.7283 71.4715 30.7379 72.0275 29.735 72.5607C27.9438 73.5134 26.135 74.4196 24.2775 75.2318L23.3735 75.6276C21.8048 76.3126 20.2232 76.9849 18.5922 77.4944C17.6722 77.7815 16.7453 78.0268 15.812 78.2458L16.1894 78.6949C16.4453 78.9993 16.4498 79.4357 16.1228 79.6919C15.8013 79.944 15.37 79.8387 15.1558 79.5046L14.7654 78.8949C14.682 78.7647 14.6346 78.6425 14.6077 78.5139C14.1779 78.6052 13.7469 78.6928 13.3147 78.7778L12.4978 78.9359C11.3312 79.1647 10.2001 79.6171 9.15737 80.1964C8.79492 80.3977 8.69392 80.0065 9.07796 79.7338C10.201 78.9367 11.511 78.486 12.8625 78.1076L12.929 78.089C13.4248 77.9511 13.9198 77.8073 14.4137 77.6585C14.3594 77.4589 14.3281 77.2517 14.3343 77.0238C14.3482 76.5151 14.3925 76.0052 14.4191 75.4969C14.4749 74.4305 14.5461 73.368 14.6295 72.3032C14.6616 71.8935 14.6975 71.4821 14.7386 71.0715C14.4738 70.9273 14.2453 70.7358 13.95 70.6419L13.9002 70.6271C13.5843 70.5404 13.6909 70.1273 13.9715 70.0918C14.2256 70.0601 14.4785 70.0749 14.729 70.1294C14.7679 70.1379 14.8046 70.1476 14.8396 70.1582C14.8856 69.7776 14.9367 69.3983 14.9947 69.0207C15.1481 68.0237 15.2567 66.9729 15.576 66.0148C15.5997 65.9442 15.7035 65.9188 15.742 65.9928C16.2066 66.8905 16.2227 67.9911 16.2751 68.9903L16.2816 69.1095C16.3433 70.1996 16.3468 71.3003 16.3269 72.392C16.3065 73.5168 16.2685 74.639 16.2188 75.7629C16.1988 76.2158 16.1996 76.6851 16.1237 77.1181C18.8885 76.2056 21.6044 75.1134 24.2076 73.82C26.0442 72.9079 27.8646 71.9591 29.6642 70.9747C30.5658 70.4817 31.4721 69.9967 32.3729 69.5015C32.6883 69.3281 33.0037 69.1539 33.3192 68.9797L33.7917 68.718C34.2342 68.4727 34.6033 68.2288 35.1188 68.2118C35.2725 68.2068 35.41 68.2799 35.5079 68.3903C35.785 68.1907 36.105 68.0685 36.4408 68.0715C36.9467 67.3624 37.46 66.6592 37.9938 65.9712L38.3879 65.4617C39.0708 64.583 39.7938 63.6908 40.6642 63.0219C41.0525 62.7238 41.48 62.4997 41.9254 62.3149C41.8204 62.2887 41.7179 62.2367 41.6267 62.1504C41.2008 61.7496 41.1421 61.0054 41.0558 60.4464C40.9663 59.8667 41.0008 59.3479 41.0892 58.7703C41.1238 58.5453 41.49 58.4988 41.5796 58.7051C41.7679 59.1398 41.9675 59.5567 42.1392 59.9965L42.1896 60.1293C42.3737 60.6244 42.7658 61.1449 42.74 61.6824C42.7329 61.8295 42.6842 61.9576 42.6092 62.0608C42.9833 61.9348 43.3629 61.8223 43.7363 61.7048C44.9121 61.3361 46.0925 60.9779 47.2908 60.6916C47.61 60.6155 47.9304 60.5449 48.2525 60.4798C48.4208 59.6671 48.6667 58.8692 48.9567 58.0857C48.6821 57.9428 48.5046 57.7034 48.2683 57.4907C48.0471 57.2916 47.8954 57.0489 47.7067 56.8201C47.535 56.6121 47.6313 56.2358 47.94 56.248L48.0275 56.2518C48.3471 56.2671 48.6567 56.3005 48.9467 56.4518L49.05 56.506C49.1917 56.5808 49.3467 56.6662 49.485 56.7673C49.6654 56.3457 49.8529 55.9279 50.0429 55.5144L50.2892 54.9799C50.9275 53.5879 51.5642 52.1435 52.3658 50.8479C52.7221 50.2716 53.1963 49.9118 53.8767 49.8564C54.5779 49.7989 55.3063 49.8729 56.0083 49.8987C56.8221 49.9283 57.6354 49.9629 58.4483 50.0065C58.2396 49.7849 58.0496 49.5384 57.8404 49.3257C57.4929 48.9731 57.1263 48.639 56.7404 48.3299C55.9767 47.7185 55.1375 47.2149 54.2654 46.7811C53.3933 46.3472 52.4958 45.9688 51.6771 45.4326C51.1592 45.0935 50.6958 44.6669 50.2733 44.2051C50.0075 47.1176 48.6221 49.8234 46.5412 51.8564C44.3796 53.9677 41.3925 55.1275 38.47 55.621C35.4896 56.1241 32.3787 55.9394 29.5275 54.8878C28.0571 54.3452 26.6471 53.5706 25.3896 52.5989C25.3758 52.6831 25.3592 52.7668 25.3267 52.8454C25.2829 52.9511 25.2292 53.0408 25.1675 53.1334L25.0579 53.2962C24.9888 53.3985 24.9183 53.5 24.84 53.5947C24.6499 53.8247 24.3806 53.9254 24.0906 53.9241C23.5352 53.9224 23.1146 53.3693 23.2641 52.8226C23.358 52.4793 23.559 52.2725 23.8727 52.138C23.9718 52.0953 24.0729 52.0598 24.1745 52.0247L24.2509 51.9985C24.3536 51.9625 24.4555 51.9287 24.5613 51.9088C23.9658 51.3752 23.4134 50.7951 22.9187 50.1693C21.367 48.2056 19.8365 45.4559 20.3553 42.8482C20.3643 42.8034 20.404 42.7751 20.4467 42.7679C20.4768 42.5848 20.5728 42.4081 20.7042 42.2888C20.6157 42.2651 20.5266 42.247 20.437 42.2347ZM36.5496 87.32C36.8567 87.1462 37.1742 87.5584 36.9246 87.8134L36.5517 88.1919C36.2054 88.5449 35.8688 88.9018 35.5725 89.3039L35.5008 89.4025C35.1008 89.9547 34.6746 90.5944 34.0196 90.8008C33.2271 91.0507 32.4654 90.0705 32.9246 89.3547C33.3254 88.7293 34.0971 88.4933 34.7625 88.2346C35.3921 87.9897 35.9608 87.6519 36.5496 87.32ZM10.986 84.4328C11.1665 84.1931 11.6373 84.3195 11.5139 84.659C11.1133 85.7618 10.95 87.265 9.93825 87.9978C9.61183 88.2337 9.09904 88.1255 8.83029 87.8527C8.52492 87.5424 8.51271 87.106 8.68733 86.728C8.90033 86.2663 9.42425 85.9318 9.79146 85.5804L9.82442 85.5487C10.2195 85.1588 10.6467 84.8836 10.986 84.4328ZM53.2738 85.7022C53.5958 85.561 54.4358 85.287 54.6846 85.6113C54.6963 85.6231 54.7063 85.6362 54.7142 85.6506C54.7754 85.7584 54.7846 85.9102 54.7142 86.0172C54.4242 86.4595 54.1221 86.7897 53.71 87.1047L53.6638 87.1398C53.2146 87.4747 52.7929 87.8684 52.2458 88.0193C51.4875 88.2291 50.9579 87.2654 51.4904 86.7026C51.9196 86.2493 52.5746 86.0138 53.1429 85.761L53.2738 85.7022ZM22.826 79.4019C22.6992 79.1689 22.9583 78.8835 23.193 79.0289C23.8625 79.4446 24.6423 79.7562 25.3942 79.9799C25.6988 80.0708 25.9733 80.3837 25.9504 80.7216L25.9471 80.7727C25.9379 80.8924 25.9217 81.0108 25.8471 81.1101C25.585 81.4577 25.2104 81.5918 24.8104 81.3858C23.9188 80.9271 23.3085 80.2869 22.826 79.4019ZM42.3929 78.697C42.3763 78.5993 42.4471 78.5236 42.545 78.5427C43.1108 78.6513 43.6333 78.9287 44.1192 79.2475C44.3796 79.4188 44.6308 79.6065 44.8908 79.779C45.2121 79.9926 45.3321 80.1685 45.3796 80.56C45.4108 80.8184 45.1733 81.0543 44.9554 81.1254C44.3617 81.3199 43.6813 80.6822 43.2792 80.2678L43.2608 80.2488C42.84 79.8133 42.4925 79.2979 42.3929 78.697ZM59.385 78.02C59.2558 77.6665 59.7004 77.3735 59.9913 77.5469C60.2646 77.7105 60.5617 77.8458 60.82 78.0331C61.0571 78.2057 61.2733 78.4095 61.5008 78.5964L61.6133 78.6864C62.0308 79.0272 62.7192 79.8691 62.1229 80.3579C61.555 80.8226 60.8021 80.2289 60.4208 79.7947L60.3946 79.7642C60.175 79.5072 59.905 79.2277 59.7458 78.9274C59.5958 78.6446 59.4946 78.3203 59.385 78.02ZM53.7854 50.6517C53.0742 50.7917 52.7842 51.683 52.485 52.2636C51.7779 53.6345 51.1279 55.0307 50.4754 56.4286C50.2742 56.8582 50.0788 57.2916 49.8813 57.7242C49.8692 57.758 49.8538 57.7914 49.8354 57.8244C49.4308 58.7085 49.0142 59.5868 48.5275 60.4261C48.9729 60.3411 49.4208 60.2688 49.8704 60.2121C49.8479 59.7825 50.1375 59.2075 50.2808 58.8455L50.2929 58.8151C50.4717 58.3517 50.6592 57.621 51.1192 57.3804C51.2725 57.3005 51.4367 57.4007 51.4483 57.5724C51.4833 58.0827 50.9917 58.6667 50.7513 59.0997C50.6058 59.3618 50.4646 59.6248 50.3262 59.8908C50.2746 59.9906 50.2313 60.0883 50.1783 60.1762C50.41 60.1504 50.6421 60.128 50.875 60.1115L51.0267 60.1009C51.8896 60.043 52.8058 60.0265 53.5854 60.4587C54.3088 60.8591 54.6788 61.7145 54.2812 62.4934C53.7863 63.4638 52.6963 63.5923 51.7375 63.671C50.54 63.7691 49.34 63.9458 48.1513 64.1188C46.9213 64.2972 45.7633 64.7572 44.5521 64.994C44.4392 65.016 44.3692 64.8663 44.4725 64.8025C45.4279 64.2118 46.5896 63.887 47.6579 63.556L47.7446 63.5293C48.3242 63.3483 48.8904 63.142 49.49 63.0397C50.0717 62.9399 50.6575 62.8595 51.2442 62.7982L51.3013 62.7927C51.9475 62.7378 53.5963 62.7564 53.5267 61.7851C53.4804 61.1424 52.4512 61.0312 51.9813 61.0236C49.8267 60.9885 47.6571 61.569 45.6096 62.191L45.1525 62.3302C44.3142 62.5864 43.4746 62.8498 42.6517 63.15C41.7196 63.49 40.985 64.0207 40.3063 64.7463C39.5533 65.5513 38.8242 66.3742 38.0433 67.1522C37.5508 67.6427 37.0521 68.1243 36.5496 68.6017C36.4358 68.751 36.345 68.9133 36.2821 69.1239C36.1758 69.4799 36.2004 69.8106 36.2404 70.1764C36.3417 71.0994 36.3642 72.0318 36.4908 72.9523C36.6083 73.8047 36.7729 74.6885 37.1217 75.4792C37.2596 75.7925 37.4392 76.0999 37.6442 76.3752L37.8092 76.593C37.8813 76.6877 37.9617 76.7913 38.0462 76.8889C38.1704 76.735 38.35 76.6348 38.5588 76.6602C39.0021 76.713 39.3508 76.7003 39.7858 76.5968C40.1229 76.5168 40.4571 76.423 40.7921 76.3363C41.4508 76.1659 42.115 76.0107 42.7667 75.8149L42.8788 75.7807C43.3646 75.6293 43.8504 75.4399 44.2546 75.1215C44.7242 74.7519 44.8688 74.2183 45.2167 73.757C45.9592 72.7713 47.5646 72.792 48.6513 72.5223C49.575 72.2931 50.4638 71.9311 51.1029 71.2508L51.14 71.2102C51.1117 71.0888 51.1575 70.9518 51.2688 70.8888L51.2929 70.8753C51.3363 70.8508 51.3829 70.8406 51.4288 70.8415C51.4879 70.7531 51.5454 70.6618 51.5975 70.5645C51.64 70.4842 51.7471 70.5434 51.7329 70.6225C51.7246 70.6698 51.7129 70.7159 51.7021 70.762C52.3213 70.6005 53.0013 70.6313 53.6296 70.6318L54.4454 70.6288C54.5867 70.6271 54.7971 70.6199 54.8158 70.611L54.835 70.6026C54.8858 70.5802 54.8138 70.617 54.8492 70.5692C54.8883 70.5163 54.9267 70.463 54.9646 70.4093C55.1 70.2169 55.2279 70.0191 55.3529 69.8195C53.9871 70.173 52.5717 70.3929 51.1771 70.5759C49.6804 70.773 48.1642 70.9096 46.6546 70.9108C46.2383 70.9113 46.2421 70.2736 46.6546 70.2575C48.2533 70.1954 49.8438 70.1095 51.4317 69.9015C52.2529 69.7937 53.0708 69.6588 53.8838 69.5007C54.1979 69.4398 54.5108 69.3755 54.8233 69.307L55.0575 69.255C55.2046 69.222 55.6196 69.1747 55.8221 69.0368C55.8621 68.9675 55.9017 68.8981 55.9413 68.8288C55.9217 68.5852 55.3121 68.6178 55.1692 68.6174C54.7637 68.6165 54.3583 68.6199 53.9525 68.6212C53.1417 68.6233 52.3313 68.6161 51.52 68.6097C49.9 68.5962 48.2738 68.5387 46.655 68.6093C46.2621 68.6262 46.0558 67.9865 46.4442 67.8182C48.1588 67.0748 50.0621 66.9133 51.8929 66.685C52.8558 66.5649 53.8192 66.4262 54.76 66.1831L54.9929 66.123C55.5842 65.9691 56.2371 65.7814 56.735 65.4148C55.9867 65.1074 55.0563 65.1429 54.2808 65.0993L54.2213 65.0955C53.135 65.0279 52.0471 64.9932 50.9588 64.9915C48.7321 64.9885 46.505 65.0685 44.2808 65.1759C44.225 65.1784 44.2133 65.0888 44.2679 65.0769C46.5538 64.5708 48.8771 64.3268 51.2167 64.2892C52.3058 64.2714 53.3963 64.2871 54.4846 64.3361L54.8842 64.3547C55.8121 64.3953 56.8421 64.4063 57.6188 64.9754C57.7371 65.0621 57.7996 65.1729 57.8092 65.29C58.8508 63.1826 59.8125 61.0308 60.7783 58.8937C61.5292 57.2316 62.2521 55.5558 63.03 53.9068L63.2821 53.3736C63.6196 52.6615 63.965 51.9499 64.3488 51.264C62.9138 51.0691 61.4708 50.9338 60.0271 50.8302C58.7113 50.7359 54.4188 50.527 53.7854 50.6517ZM53.15 73.4935C53.3138 73.4009 53.5646 73.4762 53.6046 73.6813C53.6346 73.8335 53.6858 74.0031 53.6858 74.1591C53.6858 74.346 53.62 74.5494 53.585 74.732C53.5042 75.1528 53.405 75.4944 53.1942 75.869C53.0625 76.1033 52.7963 76.2627 52.5288 76.2564C52.3171 76.2513 52.1296 76.1938 51.9842 76.0272C51.81 75.828 51.6904 75.5346 51.7858 75.2661C52.0363 74.5629 52.4958 73.8623 53.15 73.4935ZM18.4407 72.7916C18.8236 72.1109 19.7313 71.5024 20.5233 71.5624C21.7127 71.6529 21.9554 73.2787 20.8039 73.6669C20.1156 73.8986 19.1687 73.6606 18.5666 73.2787C18.4043 73.176 18.3448 72.9624 18.4407 72.7916ZM6.21729 70.4656C6.13029 70.3375 6.27404 70.1907 6.40363 70.2195C6.69104 70.2833 7.00092 70.3117 7.28242 70.3988C7.57071 70.4876 7.84975 70.6351 8.13533 70.7366C8.73358 70.9493 9.37254 71.0563 9.95154 71.313C10.183 71.4157 10.365 71.7561 10.3436 72.0068L10.3381 72.0656C10.3253 72.1899 10.3041 72.2986 10.2355 72.4123C10.0512 72.718 9.68621 72.8758 9.34167 72.7819C8.7025 72.6073 8.07792 72.1595 7.53296 71.7878L7.43225 71.7197C7.19413 71.5603 6.93813 71.3937 6.74625 71.1891C6.54596 70.9751 6.38138 70.7079 6.21729 70.4656ZM28.1888 67.9894C28.115 67.7201 28.445 67.5425 28.6371 67.7243C29.0208 68.0875 29.4225 68.4241 29.7983 68.7966L29.8238 68.822C30.0929 69.0969 30.485 69.6262 30.1346 69.9814C29.6858 70.4373 29.0608 69.7611 28.82 69.4089C28.515 68.962 28.3317 68.5116 28.1888 67.9894ZM57.5729 65.7653C57.0033 66.3776 56.1258 66.6592 55.3529 66.8926C54.4367 67.1691 53.4929 67.334 52.5479 67.4702C51.6346 67.6013 50.7288 67.7184 49.83 67.8693C50.51 67.8778 51.1896 67.8829 51.8675 67.8951C52.65 67.9095 53.4317 67.9269 54.2133 67.9497C54.7829 67.9666 55.4508 67.8871 55.9921 68.1023C56.0896 68.1408 56.1808 68.1945 56.2604 68.2596C56.715 67.4385 57.1513 66.6059 57.5729 65.7653ZM22.4374 60.0375C23.032 59.8455 23.591 59.591 24.2213 59.6574C24.3888 59.6747 24.5088 59.84 24.4174 60.0037C24.1187 60.5373 23.633 60.8388 23.1548 61.1957L23.1127 61.2274C22.5894 61.6223 22.0275 61.9826 21.4584 62.3069C20.4785 62.865 19.6005 61.2675 20.59 60.7986C21.1854 60.5166 21.8108 60.2396 22.4374 60.0375ZM33.1417 58.6502C34.0513 58.7111 34.9604 58.7525 35.8708 58.7897C36.9258 58.8328 36.5713 60.4811 35.69 60.1475C34.8196 59.8181 33.9487 59.4925 33.0704 59.1851C32.8029 59.0916 32.8246 58.6455 33.1246 58.6497L33.1417 58.6502ZM9.81183 55.7182C10.0476 55.7017 10.2854 55.7537 10.5215 55.777L10.7727 55.8019C11.2905 55.8539 11.7761 55.9186 12.27 56.1326C13.1812 56.5275 12.6918 58.0146 11.777 57.9804C11.1008 57.955 10.5227 57.6603 9.95175 57.3174C9.45262 57.0172 9.14663 56.6417 8.80958 56.1706C8.69796 56.0146 8.8535 55.84 9.0055 55.8243C9.27329 55.7964 9.544 55.7372 9.81183 55.7182ZM55.4913 52.6814C55.3404 53.6366 54.9663 54.5317 54.4021 55.3114C54.1188 55.703 53.6213 55.7178 53.3404 55.3114C52.9429 54.7364 53.1879 54.0772 53.4871 53.5249L53.5758 53.3634C53.71 53.1207 53.9158 52.7672 54.1508 52.5228L54.155 52.4979C54.2808 51.4974 55.6467 51.6974 55.4913 52.6814ZM18.7013 46.551C18.928 46.3434 19.3456 46.406 19.4192 46.7434C19.5222 47.2157 19.5849 47.7485 19.5175 48.228C19.4809 48.4881 19.4672 48.7798 19.3665 49.0221C19.2582 49.2826 19.0499 49.483 18.8537 49.6792C18.462 50.0699 17.6362 49.9409 17.5312 49.3244L17.518 49.2492C17.4652 48.9574 17.3977 48.6458 17.4758 48.357C17.5348 48.1388 17.6666 47.9164 17.7757 47.7143L17.7987 47.6711C18.0172 47.258 18.3577 46.8648 18.7013 46.551ZM50.5754 47.5561L50.6575 47.5574C51.2904 47.5701 52.4475 47.7261 52.4538 48.5202C52.455 48.7075 52.3187 48.9012 52.1358 48.9443C51.7575 49.0335 51.5129 48.8065 51.2429 48.5773C51.0225 48.3895 50.7654 48.2399 50.4987 48.1325C50.21 48.0158 50.2292 47.5557 50.5754 47.5561Z" fill="black"/>
<path fill-rule="evenodd" clip-rule="evenodd" d="M52.5796 24.2569C52.0275 20.2135 50.765 16.2878 50.5838 12.1838C50.4758 10.4277 50.3679 8.67144 50.2604 6.91509C50.2196 5.8182 48.8158 5.44813 48.2796 6.4199C47.0613 5.04796 44.8792 5.24999 43.2146 5.29164C33.4146 5.6442 24.1016 12.3709 20.7375 21.7499C20.6566 21.9735 20.6811 22.2116 20.7725 22.4243C19.2045 27.733 24.75 31.1509 28.5321 33.5179C30.0663 35.164 31.8696 36.5315 33.9058 37.4681C36.2483 38.5865 38.8558 39.2106 41.4442 39.2702C42.0121 39.2833 42.3533 38.8169 42.3946 38.3345C43.2204 38.1391 44.6333 38.3645 45.07 37.5057C50.0492 35.3099 53.2938 29.7449 52.5796 24.2569Z" fill="white"/>
<path fill-rule="evenodd" clip-rule="evenodd" d="M50.2497 9.91786C50.2355 9.78674 50.4222 9.78272 50.4605 9.8889C50.7759 10.7618 51.1034 11.6286 51.3534 12.5235C51.5942 13.386 51.768 14.2681 51.9438 15.1464C52.2351 16.604 52.4859 18.0723 52.6934 19.5453C53.1363 19.1939 53.7163 19.1619 54.2622 19.4354C54.5184 19.5636 54.6163 19.9028 54.5547 20.1659C54.5055 20.3769 54.4451 20.5871 54.373 20.7926C54.5276 20.9317 54.6588 21.1029 54.7542 21.3C55.0059 21.8184 54.9247 22.3622 54.6992 22.8569C54.7163 22.8861 54.7334 22.9161 54.7497 22.9474C55.0759 23.5905 54.9013 24.1668 54.6626 24.7948C54.4842 25.2641 54.5838 25.7931 54.1988 26.1478C54.0647 26.5842 53.8638 26.9906 53.5717 27.3572C53.5051 27.4806 53.4059 27.58 53.2876 27.6532C53.258 28.342 53.1863 29.0291 53.0517 29.7098C52.5284 32.353 50.8672 34.7082 48.8113 36.3696C46.7992 37.995 44.4363 38.9662 41.8867 39.2804C40.6488 39.433 39.4088 39.3848 38.1809 39.1671L38.028 39.1396C36.8951 38.9307 35.5238 38.5852 34.7405 37.7176C34.3284 37.2613 34.5692 36.2571 35.2976 36.3518C35.6834 36.4021 36.0192 36.4647 36.383 36.6093C36.6663 36.7222 36.9501 36.8309 37.2409 36.9231C37.7984 37.099 38.3747 37.2364 38.953 37.3125C40.1584 37.4706 41.4113 37.4288 42.6026 37.1899C44.7692 36.756 46.8747 35.7552 48.5188 34.2482C50.4301 32.4964 51.5505 30.2287 51.7155 27.6138C51.8988 24.7013 51.5676 21.719 51.2926 18.8215C51.1497 17.3143 50.968 15.8102 50.7497 14.3124C50.5359 12.8489 50.4076 11.3875 50.2497 9.91786ZM33.3347 0.513318L33.4272 0.498856C37.1067 -0.0696097 40.9784 -0.0292705 44.4367 1.51232C45.0997 1.80801 45.7484 2.16459 46.3592 2.57838C46.7972 2.532 47.2372 2.49436 47.6692 2.48819C48.2134 2.48096 48.7442 2.76781 48.8109 3.32638C49.3205 3.3907 49.7901 3.58106 50.0901 3.96187C50.2072 4.11012 50.2855 4.28171 50.3251 4.46044C50.6384 4.53558 50.9455 4.6508 51.2372 4.80273C51.5909 4.98772 51.7951 5.50244 51.6701 5.88325C51.6413 5.96968 51.6084 6.05391 51.5717 6.13628L51.5434 6.19772L51.5601 6.22098C51.8426 6.68212 51.6463 7.28712 51.2134 7.56239C50.8884 7.76882 50.5259 7.93327 50.1526 8.0128C50.1834 8.16473 50.2117 8.31754 50.2342 8.47213C50.2434 8.53479 50.1642 8.57945 50.1288 8.51771C50.1288 8.51771 50.2626 8.94043 50.4642 9.4061C50.5434 9.58923 50.2901 9.75186 50.193 9.56691C49.9359 9.07358 49.7767 8.56778 49.5434 8.05927C49.328 8.04498 49.113 7.99491 48.9059 7.89931C48.7705 7.83673 48.6676 7.73128 48.5938 7.60527C48.5892 7.61064 48.5867 7.6169 48.5822 7.62315C47.8876 8.53023 46.5301 8.84837 45.4809 9.13523C44.3542 9.44365 43.2009 9.63392 42.0434 9.77422C40.0222 10.0182 37.9855 10.0638 35.9547 10.1586C35.8201 10.1648 35.6859 10.1717 35.5513 10.1782C34.7267 10.9128 33.6642 11.3693 32.5747 11.5081C32.0222 11.5784 31.3692 11.5605 30.7501 11.4173C30.5259 11.6497 30.2426 11.8218 29.9334 11.9102C29.878 13.0808 29.2347 14.1891 28.263 14.8352L28.2801 14.9047C28.5217 15.9044 28.5184 16.997 27.6526 17.6918C27.5355 17.7858 27.4072 17.8664 27.2726 17.9333L27.3022 18.0023C27.7492 19.0635 27.8922 20.2357 27.0513 21.1161C26.7105 21.4729 26.1122 21.3884 25.8563 20.979L25.8438 20.9583C25.8297 20.9338 25.8147 20.9106 25.7997 20.8864C25.7772 20.9338 25.7422 20.9736 25.6905 20.996C25.3709 21.1355 25.2434 21.0328 24.9517 20.889C24.6826 20.7549 24.3982 20.6547 24.1077 20.5769C23.8709 20.5144 23.635 20.4695 23.3973 20.4437C21.8955 21.0264 20.9255 22.8137 21.1561 24.4912C21.2811 25.4045 21.775 26.3089 22.6358 26.6878C23.0126 26.854 23.4554 26.9238 23.863 26.8675C24.4149 26.7914 24.8392 26.4388 25.4105 26.6404C25.6359 26.7199 25.7767 26.8996 25.7888 27.1453C25.8092 27.5314 25.6747 27.821 25.4476 28.0354C25.848 28.3749 26.1709 28.8468 26.5188 29.2232C26.9538 29.6942 27.3947 30.1652 27.8647 30.5995C28.3084 31.0113 28.7805 31.394 29.2801 31.7336L29.3326 31.7687C29.9592 32.183 30.7484 32.5505 30.7784 33.4165C30.788 33.6773 30.6322 33.9167 30.4209 34.0499C29.6313 34.5467 28.7722 33.8943 28.1534 33.4165C27.9042 33.2241 27.6622 33.0249 27.4288 32.8186C27.273 32.8308 27.1034 32.805 26.9263 32.7255C26.8126 32.6756 26.7017 32.6164 26.5926 32.5539C26.238 32.6444 25.9034 32.5649 25.628 32.3763C25.2309 32.4752 24.8101 32.4871 24.4527 32.4076C24.1262 32.334 23.8348 32.1775 23.5944 31.9678C23.0927 32.1302 22.5355 32.1002 22.0408 31.7915C21.7441 31.6067 21.5126 31.3428 21.3867 31.0346C21.3226 30.9327 21.2816 30.8139 21.2785 30.6832L21.2785 30.6333C20.8471 30.6435 20.4149 30.4929 20.0812 30.1466C19.7749 29.8282 19.6254 29.4316 19.6085 29.0282C19.1746 28.9035 18.7776 28.6468 18.4756 28.251C17.9756 27.5948 17.9088 26.7842 18.1659 26.0603C18.149 26.0223 18.1341 25.9829 18.1209 25.9436C17.7221 25.3724 17.4589 24.6835 17.48 23.9926C17.4827 23.8852 17.4967 23.7799 17.5179 23.6755C17.1253 23.4637 16.8365 23.0916 16.8057 22.6188C16.7819 22.248 16.9131 21.8852 17.1499 21.6108C17.0346 21.3313 16.9835 21.0273 17.0187 20.7237C17.0549 20.4116 17.1631 20.1408 17.3217 19.9148C17.318 19.8326 17.3225 19.7494 17.3357 19.6645C17.3198 19.5814 17.3066 19.4956 17.2997 19.4081C17.2247 18.45 17.8762 17.6117 18.6693 17.1693C18.8779 17.0532 19.1033 16.9584 19.3286 16.878C19.4924 16.819 19.7388 16.7994 19.8832 16.6912C19.877 16.6868 19.9369 16.6082 19.9474 16.5661C19.9589 16.5143 19.9712 16.4634 19.9775 16.4106C20.0012 16.189 19.9835 15.9611 19.9792 15.7386C19.9598 14.7287 19.9906 13.7144 20.0953 12.7099C20.2899 10.8475 20.7697 9.02533 21.7045 7.39795C22.4888 6.03421 23.5628 4.88227 24.7942 3.9269C27.2472 2.02493 30.3084 0.990789 33.3347 0.513318ZM21.9667 23.6742C21.6474 22.8954 23.1507 22.8877 23.5482 22.9245L23.5599 22.9258C24.4545 23.0163 25.853 23.4531 26.2192 24.3694C26.3705 24.7487 25.9222 25.1601 25.5634 25.0354C25.2122 24.9132 25.0151 24.651 24.733 24.4214C24.6591 24.3613 24.582 24.3051 24.5035 24.251C24.5448 24.3846 24.611 24.5081 24.703 24.6002L24.7247 24.621C25.1576 25.0159 24.3832 25.6362 24.0959 25.1136C23.9429 24.8353 23.8816 24.5301 23.9293 24.2142C23.9435 24.1207 23.9682 24.0358 24.004 23.9541C23.9755 23.9398 23.9474 23.9241 23.9185 23.9102L23.8669 23.8856C23.5224 23.7271 22.0521 23.1038 22.064 23.6611C22.0653 23.7229 21.9865 23.7229 21.9667 23.6742Z" fill="black"/>
<path fill-rule="evenodd" clip-rule="evenodd" d="M42.6468 32.2393C42.0551 31.9944 41.5268 31.5855 41.141 31.0633C41.0068 30.8815 40.9718 30.69 41.0001 30.5145C41.0318 30.3175 41.1468 30.1386 41.3035 30.0189C41.4605 29.8988 41.6572 29.8392 41.8472 29.8697C42.0122 29.8959 42.1768 29.9876 42.3068 30.1779L42.3339 30.216C42.5635 30.5314 42.8626 30.7898 43.2035 30.9568C43.5318 31.1175 43.8989 31.1923 44.2793 31.1488C45.003 31.0659 45.5022 30.6684 46.0326 30.1284C46.098 30.0604 46.1639 29.9902 46.2301 29.9187C46.2718 29.854 46.3297 29.8122 46.3939 29.7906C46.4655 29.7661 46.5464 29.7678 46.6201 29.794C46.6918 29.8189 46.7555 29.8671 46.798 29.931C46.8389 29.9914 46.8618 30.0663 46.8543 30.1525C46.806 30.7115 46.5176 31.2109 46.1085 31.6029C45.6543 32.0384 45.0518 32.3395 44.4847 32.4452C43.8597 32.5615 43.223 32.4782 42.6468 32.2393ZM44.7793 23.6099C45.4443 24.0201 46.4568 24.9766 45.7418 25.9935C44.9001 26.8903 43.688 25.8624 43.091 25.3973C42.5372 25.037 41.9151 25.9639 42.4289 26.3846C46.7443 29.6282 48.4955 23.7173 45.1155 23.1279C44.7435 23.0628 44.6051 23.4831 44.7793 23.6099ZM37.046 19.8369C37.1193 18.9114 38.508 18.7012 38.646 19.6171C38.7697 20.4374 38.6239 21.1909 38.2601 21.9296C37.9122 22.6353 37.038 22.3063 36.9718 21.6636C36.8835 20.8023 37.0001 20.4124 37.046 19.8369ZM47.6151 19.4271C47.8085 19.1698 48.088 18.9941 48.423 19.0934C49.4693 19.4037 49.161 20.9118 48.7935 21.6454C48.5939 22.0442 47.9485 22.1452 47.6568 21.7943C47.1814 21.2222 46.9539 20.0791 47.558 19.5154C47.5743 19.4862 47.5926 19.4568 47.6151 19.4271ZM38.2455 15.7872L38.4105 15.7578C38.9218 15.668 39.5576 15.5817 39.9193 15.999C40.111 16.2203 40.1772 16.6316 39.9193 16.8434C39.4655 17.216 38.9643 17.0716 38.421 17.1032C37.973 17.1293 37.5426 17.2045 37.111 17.3297C36.1647 17.6044 35.3935 18.1057 34.5851 18.6562C34.4789 18.7284 34.3705 18.5907 34.4214 18.49C34.888 17.5621 35.7922 16.7999 36.698 16.3352C37.1814 16.0872 37.7105 15.8815 38.2455 15.7872ZM46.6614 15.3715L46.7876 15.3978C48.1643 15.6899 49.9526 16.2734 50.6047 17.646C50.6293 17.8401 50.603 17.8817 50.5818 17.9089L50.5747 17.9179C50.5572 17.9411 50.543 17.9731 50.4601 17.9995C50.4372 17.994 50.4139 17.9881 50.3905 17.9818C50.0918 17.9023 49.8555 17.7928 49.6264 17.6792L49.3785 17.5551C49.0905 17.4118 48.8001 17.2737 48.4922 17.1717C47.8351 16.9542 47.1597 16.801 46.4735 16.7192C46.3247 16.7015 46.1818 16.6505 46.0685 16.5632C45.9614 16.4803 45.8797 16.3655 45.8422 16.213C45.7939 16.0156 45.8076 15.8661 45.9118 15.688C45.9905 15.5543 46.1026 15.4615 46.2318 15.4083C46.363 15.354 46.5126 15.3412 46.6614 15.3715Z" fill="black"/>
<path fill-rule="evenodd" clip-rule="evenodd" d="M52.6574 24.1541C51.5887 25.2755 49.8049 25.5973 48.3828 24.996C44.7316 23.4471 46.5187 18.6169 49.3345 17.3197C49.6862 17.2307 50.1562 17.0196 50.5845 16.9716C50.6232 16.9524 50.7074 17.0082 50.8099 16.9554C53.9145 17.3073 54.6216 22.2002 52.6574 24.1541ZM40.8812 24.4412C39.6828 26.0552 37.4541 26.5533 35.6332 25.8028C32.0362 24.3647 33.312 20.0815 35.7732 18.4022C40.972 16.4191 43.1187 21.4653 40.8812 24.4412ZM33.0837 20.8649C33.0803 20.8632 33.077 20.8627 33.0737 20.8611C33.0924 20.8526 33.1116 20.8441 33.1303 20.8353C33.1245 20.8517 33.1174 20.8678 33.1116 20.8843C33.1024 20.8775 33.0941 20.8699 33.0837 20.8649ZM55.132 19.1202C54.8387 19.1208 54.4145 19.1698 54.1716 19.3765C53.5724 17.3253 51.3612 15.4268 49.4378 16.8111C47.9232 17.3056 46.7995 18.4022 46.1607 19.8601C45.0091 19.1647 43.1982 19.4617 42.1995 20.3816C41.5453 18.1873 39.9358 17.419 38.0199 17.3056C35.9287 16.9579 33.8445 19.0197 33.1941 20.6737C32.6533 20.6112 31.8453 20.4365 31.3366 20.7752C28.0349 19.8963 22.2624 19.4116 21.5912 19.9C21.1128 20.0863 20.8503 21.2327 21.5185 21.2945C22.1007 21.2103 21.4505 20.4547 22.0374 20.3722C25.1645 20.1752 28.1999 20.8145 31.2941 21.083C31.5703 21.4602 32.4628 21.5862 32.9391 21.4348C32.1891 24.2404 33.8078 26.1495 36.2333 26.7212C39.9895 27.5969 43.257 24.1863 42.2749 20.6382C43.4128 20.0635 44.7216 20.0882 45.9607 20.3909C43.8895 28.1292 56.1657 27.7821 54.2487 19.6417C55.5245 20.286 55.8016 19.2502 55.132 19.1202Z" fill="black"/>
</svg>
