<svg width="34" height="34" viewBox="0 0 34 34" fill="none" xmlns="http://www.w3.org/2000/svg">
<g clip-path="url(#clip0_32_1085)">
<path d="M18.83 10.1699L16.2319 11.6699C15.7556 11.9449 15.5909 12.5596 15.8659 13.0359C16.1409 13.5123 16.7556 13.677 17.2319 13.402L19.83 11.902C21.2589 11.077 23.1031 11.5711 23.9281 13C24.7531 14.429 24.2589 16.2731 22.83 17.0981L20.2319 18.5981C19.7556 18.8731 19.5909 19.4878 19.8659 19.9642C20.1409 20.4405 20.7556 20.6052 21.2319 20.3302L23.83 18.8302C26.2202 17.4502 27.0401 14.3903 25.6601 12C24.2801 9.60982 21.2202 8.78992 18.83 10.1699ZM13.5358 19C13.8108 19.4764 14.4255 19.6411 14.9018 19.3661L20.0979 16.3661C20.5742 16.0911 20.739 15.4764 20.464 15C20.189 14.5237 19.5742 14.359 19.0979 14.634L13.9018 17.634C13.4255 17.909 13.2608 18.5237 13.5358 19ZM16.7678 20.5981L14.1697 22.0981C12.7408 22.9231 10.8967 22.429 10.0717 21C9.24665 19.5711 9.74078 17.727 11.1697 16.902L13.7678 15.402C14.2441 15.127 14.4088 14.5123 14.1338 14.0359C13.8588 13.5596 13.2441 13.3949 12.7678 13.6699L10.1697 15.1699C7.7795 16.5499 6.9596 19.6098 8.3396 22C9.7196 24.3903 12.7795 25.2102 15.1697 23.8302L17.7678 22.3302C18.2441 22.0552 18.4088 21.4405 18.1338 20.9642C17.8588 20.4878 17.2441 20.3231 16.7678 20.5981Z" fill="#414445" fill-opacity="0.79"/>
</g>
<defs>
<clipPath id="clip0_32_1085">
<rect width="24" height="24" fill="white" transform="translate(0.607666 12.6077) rotate(-30)"/>
</clipPath>
</defs>
</svg>
