<svg width="18" height="19" viewBox="0 0 18 19" fill="none" xmlns="http://www.w3.org/2000/svg">
<g clip-path="url(#clip0_32_1026)">
<path d="M13.5 12.56C12.93 12.56 12.42 12.785 12.03 13.1375L6.6825 10.025C6.72 9.8525 6.75 9.68 6.75 9.5C6.75 9.32 6.72 9.1475 6.6825 8.975L11.97 5.8925C12.375 6.2675 12.9075 6.5 13.5 6.5C14.745 6.5 15.75 5.495 15.75 4.25C15.75 3.005 14.745 2 13.5 2C12.255 2 11.25 3.005 11.25 4.25C11.25 4.43 11.28 4.6025 11.3175 4.775L6.03 7.8575C5.625 7.4825 5.0925 7.25 4.5 7.25C3.255 7.25 2.25 8.255 2.25 9.5C2.25 10.745 3.255 11.75 4.5 11.75C5.0925 11.75 5.625 11.5175 6.03 11.1425L11.37 14.2625C11.3325 14.42 11.31 14.585 11.31 14.75C11.31 15.9575 12.2925 16.94 13.5 16.94C14.7075 16.94 15.69 15.9575 15.69 14.75C15.69 13.5425 14.7075 12.56 13.5 12.56Z" fill="white"/>
</g>
<defs>
<clipPath id="clip0_32_1026">
<rect width="18" height="18" fill="white" transform="translate(0 0.5)"/>
</clipPath>
</defs>
</svg>
