<svg width="34" height="34" viewBox="0 0 34 34" fill="none" xmlns="http://www.w3.org/2000/svg">
<path d="M16.9999 0.333313C7.79992 0.333313 0.333252 7.79998 0.333252 17C0.333252 26.2 7.79992 33.6666 16.9999 33.6666C26.1999 33.6666 33.6666 26.2 33.6666 17C33.6666 7.79998 26.1999 0.333313 16.9999 0.333313ZM23.6666 18.6666H18.6666V23.6666C18.6666 24.5833 17.9166 25.3333 16.9999 25.3333C16.0833 25.3333 15.3333 24.5833 15.3333 23.6666V18.6666H10.3333C9.41659 18.6666 8.66659 17.9166 8.66659 17C8.66659 16.0833 9.41659 15.3333 10.3333 15.3333H15.3333V10.3333C15.3333 9.41665 16.0833 8.66665 16.9999 8.66665C17.9166 8.66665 18.6666 9.41665 18.6666 10.3333V15.3333H23.6666C24.5833 15.3333 25.3333 16.0833 25.3333 17C25.3333 17.9166 24.5833 18.6666 23.6666 18.6666Z" fill="white"/>
</svg>
